<?xml version="1.0" standalone="no"?>
<!DOCTYPE svg PUBLIC "-//W3C//DTD SVG 20010904//EN"
 "http://www.w3.org/TR/2001/REC-SVG-20010904/DTD/svg10.dtd">
<svg version="1.0" xmlns="http://www.w3.org/2000/svg"
 width="1024.000000pt" height="1024.000000pt" viewBox="0 0 1024.000000 1024.000000"
 preserveAspectRatio="xMidYMid meet">

<g transform="translate(0.000000,1024.000000) scale(0.100000,-0.100000)"
fill="#000000" stroke="none">
<path d="M4970 9124 c-793 -48 -1624 -357 -2275 -847 -166 -125 -219 -170
-384 -332 -334 -327 -586 -673 -796 -1093 -224 -448 -347 -862 -412 -1382 -24
-198 -24 -684 0 -880 63 -508 174 -893 381 -1325 339 -707 858 -1269 1571
-1700 379 -229 877 -423 1307 -509 758 -151 1546 -94 2258 166 461 168 950
455 1314 772 738 642 1208 1536 1337 2546 27 211 36 598 20 806 -41 512 -179
1001 -422 1495 -295 599 -689 1067 -1253 1489 -565 421 -1257 697 -1951 775
-127 15 -567 26 -695 19z m-105 -459 c114 -107 144 -132 200 -168 51 -33 51
-33 80 -15 46 28 108 33 163 14 26 -10 52 -18 59 -18 7 -1 11 -4 10 -7 -1 -3
7 -19 18 -34 11 -17 20 -52 22 -85 4 -56 3 -56 -10 -27 -8 17 -29 43 -46 58
-27 22 -42 27 -84 26 -29 0 -46 -3 -39 -6 9 -3 5 -12 -14 -29 -19 -18 -29 -22
-39 -14 -17 14 -39 -13 -30 -40 9 -28 -9 -25 -24 4 -20 36 -92 69 -136 60 -96
-18 -152 -131 -112 -227 15 -35 202 -224 218 -219 6 1 8 -2 5 -7 -3 -5 12 -25
34 -45 21 -19 35 -38 30 -41 -6 -3 -15 -15 -21 -27 -6 -11 -7 -18 -2 -15 4 2
23 -15 41 -39 36 -49 26 -58 -21 -18 -17 14 -38 23 -47 21 -12 -3 -69 46 -178
152 -135 130 -166 166 -187 214 -64 147 -6 297 140 360 l40 18 -103 104 c-57
57 -101 109 -97 115 15 25 54 6 130 -65z m1114 -122 c42 -38 119 -110 171
-161 75 -72 92 -94 81 -101 -11 -7 -32 6 -80 49 -150 134 -261 246 -261 263 0
9 3 17 6 17 4 0 41 -30 83 -67z m-1320 -56 c13 -12 29 -20 35 -19 6 2 8 0 3
-4 -4 -4 1 -16 10 -27 16 -17 16 -19 2 -11 -23 12 -159 141 -159 149 0 7 34
-21 109 -88z m1005 47 c17 -15 85 -76 151 -138 261 -242 246 -224 205 -246
-15 -8 -18 -7 -15 2 6 14 -343 355 -358 350 -4 -1 -6 2 -3 7 4 5 -3 16 -14 24
-11 7 -17 17 -13 20 10 10 13 9 47 -19z m-1728 -51 c27 -24 83 -75 203 -181
14 -13 45 -41 69 -64 31 -30 42 -35 42 -22 0 9 3 15 6 12 3 -4 2 -28 -2 -54
-6 -40 -9 -45 -19 -31 -6 9 -23 20 -36 25 -13 5 -24 15 -24 23 0 8 -43 56 -96
107 -73 71 -100 91 -115 86 -12 -4 -15 -3 -7 3 8 6 -3 24 -38 61 -27 29 -49
54 -49 57 0 15 40 1 66 -22z m-219 -69 c-3 -3 -12 -4 -19 -1 -8 3 -5 6 6 6 11
1 17 -2 13 -5z m-130 -59 c-26 -14 -52 -23 -57 -20 -5 3 -11 1 -15 -5 -3 -5
-11 -10 -18 -10 -6 0 -2 6 8 14 11 8 26 11 34 8 9 -3 12 -1 7 6 -7 11 5 16 31
13 6 -1 14 3 18 9 3 5 14 10 23 10 9 0 -5 -11 -31 -25z m538 6 c-3 -6 -11 -11
-16 -11 -5 0 -4 6 3 14 14 16 24 13 13 -3z m1112 -80 c21 -24 46 -51 56 -60 9
-8 17 -19 17 -23 0 -11 -69 32 -78 49 -5 8 -20 20 -33 27 -13 6 -24 18 -24 26
0 8 -4 18 -9 21 -5 4 -6 15 -2 25 7 18 8 18 22 -1 8 -11 31 -40 51 -64z m444
-74 c48 -42 90 -73 94 -69 5 4 5 2 2 -5 -4 -7 17 -29 52 -56 59 -44 59 -44 40
-64 -20 -20 -20 -19 -96 58 -42 43 -80 76 -86 72 -6 -3 -7 -1 -3 5 3 6 -4 19
-16 29 -13 10 -49 46 -80 80 -62 66 -80 104 -25 55 17 -16 71 -64 118 -105z
m1872 121 c16 -12 15 -18 -9 -78 -24 -62 -29 -67 -73 -83 -158 -56 -345 -261
-474 -523 -30 -60 -64 -135 -77 -166 -13 -32 -27 -58 -31 -58 -4 0 -40 15 -81
34 -139 64 -316 113 -495 136 -103 14 -462 8 -528 -9 -22 -5 -41 -8 -43 -6 -9
9 90 154 166 245 218 259 499 418 826 466 203 30 484 4 662 -60 83 -30 84 -30
84 -11 0 21 40 125 49 125 4 0 15 -6 24 -12z m-4017 -16 c-15 -3 -16 -6 -5
-14 10 -7 8 -8 -7 -3 -12 3 -32 1 -45 -5 -21 -9 -19 -9 11 -4 28 4 32 3 20 -6
-12 -10 -12 -11 5 -5 11 4 72 9 135 12 97 4 128 2 200 -17 47 -12 95 -22 107
-23 12 -1 19 -4 17 -6 -7 -7 57 -42 67 -36 5 4 9 1 9 -5 0 -6 5 -8 10 -5 6 4
9 2 8 -3 -4 -12 129 -112 138 -104 4 4 4 2 1 -4 -4 -6 2 -19 13 -29 17 -15 20
-31 20 -97 0 -58 -3 -78 -13 -78 -7 0 -24 -14 -36 -31 -19 -25 -25 -29 -33
-18 -8 11 -8 10 -4 -4 4 -12 -3 -27 -19 -43 -14 -14 -32 -38 -40 -54 -17 -34
-23 -38 -21 -14 0 9 -12 26 -27 37 -27 21 -29 21 -59 4 -25 -14 -33 -15 -39
-5 -7 10 -9 10 -9 -1 0 -7 -6 -11 -13 -8 -17 7 -44 -9 -34 -20 5 -4 12 -2 16
6 6 10 10 9 15 -4 3 -10 2 -23 -4 -30 -5 -6 -8 -14 -5 -17 3 -3 -1 -11 -10
-18 -19 -16 -19 -34 0 -50 21 -18 46 -70 33 -70 -6 0 -26 11 -44 25 -18 14
-36 25 -41 25 -4 0 -33 22 -63 50 -30 27 -63 52 -72 55 -21 7 -23 21 -5 28 9
4 9 6 -1 6 -21 2 -59 -47 -66 -84 -8 -42 3 -66 48 -100 36 -27 57 -31 87 -15
16 9 19 7 19 -10 0 -49 60 -100 117 -100 33 0 84 31 95 57 3 10 7 -80 7 -200
1 -173 -2 -221 -13 -232 -7 -8 -17 -11 -22 -7 -5 4 0 -4 11 -17 19 -21 20 -38
20 -229 l0 -205 -65 -13 c-78 -16 -196 -75 -256 -127 l-44 -39 0 274 0 273
-77 115 c-76 112 -77 115 -83 190 -4 68 -7 75 -27 78 -14 2 -24 12 -27 30 -9
45 -46 371 -46 408 0 32 -21 56 -37 41 -3 -3 -18 -113 -34 -244 -15 -131 -28
-239 -29 -240 0 -2 -11 -3 -24 -3 -23 0 -24 -4 -28 -77 -4 -68 -9 -85 -38
-131 -20 -32 -39 -51 -47 -48 -8 4 -13 -2 -13 -16 0 -11 -13 -43 -30 -70 -22
-35 -30 -61 -30 -93 l0 -45 -92 138 c-51 76 -97 145 -103 154 -5 9 -25 39 -44
66 l-33 51 -25 -30 c-14 -16 -28 -27 -33 -24 -4 3 -6 -3 -4 -12 3 -10 -6 -30
-21 -45 -14 -15 -25 -30 -25 -33 0 -3 -44 -65 -98 -138 -54 -72 -102 -138
-106 -145 -4 -7 -8 -291 -8 -630 l0 -617 -66 -61 -66 -62 -28 42 -28 41 0 358
c0 283 -3 365 -14 391 -8 18 -47 83 -87 144 -41 60 -86 130 -101 156 -15 25
-31 46 -35 46 -10 0 -72 -101 -92 -149 -13 -31 -13 -35 7 -50 17 -13 18 -18 7
-28 -7 -6 -17 -9 -21 -5 -5 4 -2 -1 5 -10 7 -10 9 -18 4 -18 -5 0 -8 -13 -5
-30 2 -16 1 -38 -3 -47 -5 -10 -8 -21 -7 -24 1 -6 -8 -7 -53 -10 -13 -1 -22
-5 -19 -10 3 -5 -2 -9 -10 -9 -13 0 -15 -14 -11 -95 3 -52 2 -95 -2 -95 -4 0
-27 19 -52 43 l-45 42 48 -55 c27 -30 59 -72 73 -93 13 -20 45 -61 71 -90 26
-28 61 -70 77 -92 17 -22 33 -41 38 -43 4 -2 7 -8 7 -13 0 -6 -5 -7 -12 -3 -7
4 -8 3 -4 -5 4 -6 11 -9 16 -6 4 3 13 -2 20 -10 7 -8 9 -15 4 -15 -5 0 -1 -5
8 -10 9 -6 24 -25 33 -43 13 -27 5 -21 -49 32 -36 36 -63 68 -60 73 3 5 1 7
-5 6 -5 -2 -57 47 -115 107 -98 102 -106 109 -117 90 -7 -11 -58 -67 -114
-125 l-102 -105 -7 -90 c-4 -49 -11 -343 -15 -653 -5 -309 -10 -564 -13 -567
-6 -7 -36 213 -49 365 -17 194 -7 566 21 755 49 343 120 616 223 860 78 184
165 365 176 365 5 0 18 3 28 7 16 6 17 5 3 -13 -14 -17 -13 -18 1 -7 21 17 33
5 16 -16 -11 -14 -10 -14 6 -2 17 13 17 15 0 33 -9 10 -23 16 -31 13 -16 -6
-9 25 17 67 9 15 38 64 64 108 29 47 53 77 59 74 7 -4 8 -2 4 4 -4 7 -1 21 7
32 13 18 15 19 21 5 3 -9 3 -22 0 -28 -4 -7 2 -4 12 7 14 13 15 20 7 23 -7 3
-13 10 -13 16 0 6 7 4 16 -5 13 -13 14 -20 4 -39 -10 -21 -10 -22 3 -7 8 10
17 14 21 10 4 -4 11 -7 16 -7 4 0 19 -11 32 -25 42 -43 88 -81 88 -71 0 6 -10
17 -22 25 -32 23 -148 137 -148 147 0 13 152 209 162 209 5 0 7 4 3 9 -3 5 5
18 18 28 12 10 38 37 57 61 24 30 36 39 41 30 6 -10 12 -8 24 7 16 20 16 20 5
-2 -12 -26 -30 -39 -30 -22 0 8 -4 8 -15 -1 -17 -14 -21 -35 -5 -25 6 3 7 -1
4 -10 -4 -10 -13 -14 -22 -10 -12 4 -11 0 4 -16 l19 -22 -25 7 c-21 6 -22 5
-7 -4 21 -13 38 -5 30 15 -4 12 5 15 43 15 31 0 44 -3 35 -9 -8 -5 -11 -16 -6
-30 8 -25 18 -27 35 -6 10 12 10 18 0 30 -11 13 -8 15 17 15 16 0 35 6 43 13
8 6 11 8 7 3 -4 -5 1 -18 10 -29 17 -19 17 -20 0 -14 -10 4 -16 3 -12 -2 9
-15 46 -8 56 10 10 19 -12 44 -39 44 -8 0 -17 7 -19 15 -4 13 -3 13 6 0 6 -8
11 -12 11 -7 0 15 -84 96 -94 90 -6 -3 -8 -3 -4 2 4 4 3 14 -4 22 -16 20 38
75 66 67 14 -3 17 -2 9 3 -15 11 139 169 155 159 6 -3 14 -1 18 5 4 8 3 9 -4
5 -28 -17 -8 10 39 52 96 86 181 144 193 132 8 -8 6 -9 -6 -5 -20 8 -25 -10
-5 -19 6 -2 1 -4 -13 -3 -16 1 -24 -3 -22 -11 1 -7 -5 -12 -15 -10 -10 2 -17
-2 -16 -9 2 -7 -4 -10 -12 -7 -18 7 -20 -12 -2 -20 6 -3 1 -3 -13 1 -22 5 -23
4 -11 -11 8 -9 20 -15 27 -12 7 3 11 0 8 -7 -5 -14 76 -68 89 -60 5 3 7 16 4
29 -2 13 0 21 5 18 6 -4 7 -23 4 -43 -6 -36 -6 -36 9 -11 15 25 15 25 10 -10
-5 -29 -3 -27 13 15 35 100 90 185 179 278 43 44 45 48 29 65 -9 10 -16 22
-16 26 0 5 8 -2 18 -14 l18 -23 44 32 c24 17 39 31 34 31 -5 1 32 18 81 40 50
22 85 39 78 40 -6 0 -19 3 -29 7 -12 4 -15 3 -10 -5 5 -8 1 -10 -10 -5 -11 4
-13 8 -6 11 7 2 10 8 7 13 -4 5 2 6 11 2 11 -4 15 -3 11 4 -9 14 2 18 61 19
26 0 38 -2 28 -4z m1409 -12 c3 -9 16 -23 30 -30 23 -12 125 -114 125 -125 0
-3 -36 19 -80 47 -62 42 -80 58 -81 78 -1 19 -3 20 -6 7 -5 -18 -6 -18 -19 2
-9 12 -13 25 -10 29 9 15 35 9 41 -8z m-551 -85 c5 -49 5 -49 -4 -10 -19 77
-21 91 -11 75 5 -8 12 -37 15 -65z m-1043 15 c-26 -22 -37 -25 -46 -10 -4 6 1
7 11 3 12 -4 15 -3 10 5 -4 8 -2 10 7 6 8 -3 18 -1 22 5 3 6 9 11 13 11 4 -1
-4 -10 -17 -20z m779 -5 c7 -9 8 -15 2 -15 -5 0 -12 7 -16 15 -3 8 -4 15 -2
15 2 0 9 -7 16 -15z m-951 -82 c-12 -15 -12 -16 3 -10 13 4 15 2 11 -10 -5
-12 -3 -14 7 -8 8 5 11 4 6 -3 -4 -6 -14 -8 -23 -5 -11 4 -14 3 -9 -5 9 -15 1
-15 -23 -2 -13 6 -24 5 -37 -6 -11 -9 -14 -13 -7 -10 6 4 15 2 18 -4 4 -6 3
-10 -2 -9 -25 4 -43 -6 -93 -51 -44 -40 -57 -47 -69 -37 -12 10 -12 12 2 15
10 2 17 7 17 12 0 5 7 6 17 3 10 -4 14 -2 10 4 -4 6 0 16 8 23 8 7 15 10 15 6
0 -3 13 6 30 20 27 25 121 92 129 93 2 1 -3 -7 -10 -16z m1279 -81 c15 -12 44
-37 66 -55 21 -18 55 -50 76 -71 35 -36 40 -39 57 -25 16 13 17 13 4 -3 -13
-17 -8 -23 14 -18 5 1 7 -2 3 -6 -10 -9 12 -35 23 -28 5 3 8 0 7 -7 -2 -7 4
-13 12 -14 8 -1 14 -6 13 -12 -3 -13 207 -209 220 -205 4 1 6 -2 3 -7 -8 -13
21 -34 35 -25 7 4 9 3 6 -3 -8 -13 17 -35 70 -62 32 -16 59 -21 108 -20 35 1
63 4 61 8 -2 3 8 6 23 7 36 1 114 53 107 71 -3 8 -2 12 3 8 14 -8 53 47 48 66
-3 12 0 16 9 12 9 -3 14 -20 14 -47 0 -98 -49 -192 -117 -225 -24 -12 -42 -25
-39 -29 5 -8 -22 -11 -124 -11 -127 0 -164 24 -415 277 -76 77 -143 138 -149
135 -5 -3 -6 -2 -3 4 3 5 -27 42 -67 82 -70 68 -75 75 -94 149 -11 42 -23 95
-26 117 l-6 40 15 -40 c8 -22 27 -50 43 -63z m3369 -64 c147 -116 298 -307
393 -496 102 -206 170 -488 170 -711 l0 -74 -42 59 c-62 88 -166 208 -262 304
l-86 85 0 106 c0 232 -68 459 -191 641 -22 31 -78 98 -126 148 l-86 91 84 -52
c46 -28 112 -74 146 -101z m-3636 115 c13 -16 12 -17 -3 -4 -10 7 -18 15 -18
17 0 8 8 3 21 -13z m280 -40 c13 -16 12 -17 -3 -4 -10 7 -18 15 -18 17 0 8 8
3 21 -13z m1051 -64 c28 -27 48 -53 44 -56 -3 -3 -26 17 -52 46 -25 28 -51 48
-56 44 -7 -3 -8 -1 -4 5 11 18 15 16 68 -39z m-2398 16 c-4 -8 -10 -15 -16
-15 -5 0 -7 -3 -4 -8 2 -4 -14 -27 -36 -52 -22 -25 -36 -38 -31 -30 4 8 8 30
8 49 0 22 6 36 15 38 9 3 11 1 5 -4 -5 -4 -11 -19 -13 -32 -2 -20 0 -22 13
-11 8 7 15 17 15 23 0 9 39 57 46 57 2 0 1 -7 -2 -15z m1466 -29 c0 -2 -7 -7
-16 -10 -8 -3 -12 -2 -9 4 6 10 25 14 25 6z m1235 -14 c-3 -3 -11 0 -18 7 -9
10 -8 11 6 5 10 -3 15 -9 12 -12z m-2795 -96 c0 -3 -4 -8 -10 -11 -5 -3 -10
-1 -10 4 0 6 5 11 10 11 6 0 10 -2 10 -4z m2651 -79 c-10 -9 -11 -8 -5 6 3 10
9 15 12 12 3 -3 0 -11 -7 -18z m-1168 -32 c4 -8 3 -16 -1 -19 -4 -3 -9 4 -9
15 -2 23 3 25 10 4z m1127 -27 c-23 -35 -23 -31 -1 15 8 15 16 25 19 22 2 -2
-5 -19 -18 -37z m-98 -167 c-9 -16 -18 -28 -21 -26 -4 5 27 55 34 55 2 0 -4
-13 -13 -29z m-3007 -121 c-3 -5 1 -11 7 -14 7 -3 -1 -3 -19 0 -28 4 -31 2
-26 -13 7 -17 6 -17 -10 -1 -10 10 -25 14 -34 11 -15 -6 -16 -5 -3 9 11 11 17
13 23 4 6 -8 10 -8 14 2 4 10 8 10 21 0 13 -11 15 -10 10 10 -5 19 -4 21 8 11
7 -6 12 -15 9 -19z m1830 -15 c31 -31 32 -55 1 -84 -57 -53 -131 34 -76 89 26
26 46 25 75 -5z m-197 -2 c14 -28 2 -413 -12 -413 -32 0 -36 24 -36 220 0 108
3 200 7 203 12 13 32 7 41 -10z m535 -5 c12 -6 41 -30 65 -52 25 -23 49 -39
56 -38 6 2 8 0 3 -4 -10 -10 23 -45 36 -37 5 3 7 1 3 -5 -3 -6 3 -13 14 -17
11 -3 20 -10 20 -14 0 -5 11 -7 25 -6 14 2 27 -1 30 -5 3 -5 -4 -7 -15 -5 -25
5 -25 3 2 -21 12 -10 18 -13 13 -5 -6 11 -5 12 6 5 8 -5 88 -11 179 -14 l165
-6 -209 -2 -209 -2 -100 105 c-55 58 -102 103 -106 100 -3 -3 0 -10 7 -14 10
-6 10 -11 -3 -21 -13 -11 -14 -10 -9 5 5 13 4 16 -5 10 -10 -6 -11 -3 -2 14 7
12 9 26 6 31 -8 13 1 13 28 -2z m-124 -58 c-2 -49 1 -63 16 -74 11 -8 26 -11
35 -8 8 3 12 1 7 -3 -4 -5 5 -15 20 -21 l28 -13 -30 6 -30 6 29 -26 c16 -15
34 -27 40 -27 6 0 2 7 -8 15 -11 8 -15 15 -9 15 7 0 19 -7 28 -17 14 -13 25
-14 63 -7 30 6 46 14 44 22 -2 9 6 7 22 -5 14 -10 26 -22 26 -27 0 -5 -7 -3
-15 4 -12 10 -15 10 -15 -1 0 -11 -2 -11 -10 1 -5 8 -10 10 -10 4 0 -7 -39
-13 -102 -17 -57 -4 -113 -9 -125 -13 -22 -6 -23 -3 -23 43 0 64 12 203 17
203 2 0 3 -27 2 -60z m211 16 c0 -12 -5 -7 -19 24 -11 24 -11 24 3 6 9 -11 16
-24 16 -30z m-2177 -12 c-3 -7 -9 -11 -14 -8 -5 3 -7 10 -3 15 3 5 2 9 -3 8
-20 -3 -27 2 -13 11 18 11 41 -6 33 -26z m3342 -43 c17 -10 51 -40 77 -65 27
-26 53 -44 58 -41 6 4 9 1 8 -5 -2 -7 5 -14 15 -15 11 -2 22 -7 25 -11 4 -4
-2 -4 -13 0 -11 4 13 -26 53 -66 41 -41 78 -82 84 -92 13 -24 0 -35 -16 -14
-7 10 -17 14 -21 10 -5 -4 -5 -2 -2 5 4 6 -7 23 -25 38 -18 15 -93 83 -165
151 -124 116 -149 150 -78 105z m-652 -56 l62 -65 155 -3 155 -3 -177 -1 c-98
0 -176 3 -173 7 2 3 -20 31 -50 60 -30 30 -55 58 -55 62 0 21 27 2 83 -57z
m2120 -23 c325 -126 316 -113 317 -454 0 -263 -6 -310 -55 -413 -46 -97 -94
-156 -171 -211 -187 -134 -431 -107 -603 65 -119 119 -153 242 -111 399 12 45
27 82 34 81 6 0 54 -17 106 -38 79 -31 94 -40 92 -57 -20 -122 -11 -163 46
-200 87 -57 201 -23 251 75 23 45 74 217 96 326 9 44 23 91 30 105 l13 25 11
-43 c7 -23 13 -42 15 -42 2 0 3 31 2 69 l-1 69 -70 22 c-38 12 -119 43 -179
68 -91 38 -114 53 -137 86 -37 51 -38 97 -3 133 37 37 74 30 317 -65z m-2808
49 c-6 -5 -25 10 -25 20 0 5 6 4 14 -3 8 -7 12 -15 11 -17z m156 12 c13 -16
12 -17 -3 -4 -10 7 -18 15 -18 17 0 8 8 3 21 -13z m8 -30 c2 -2 -1 -3 -7 -3
-6 0 -18 8 -28 18 -17 16 -17 16 -11 -7 4 -17 3 -21 -5 -13 -6 6 -8 18 -4 28
6 15 8 15 29 -2 12 -10 24 -20 26 -21z m1881 -193 c0 -96 -111 -132 -172 -56
-29 35 -22 83 29 190 l48 98 47 -98 c31 -63 48 -110 48 -134z m547 -43 c63
-42 70 -102 19 -153 -29 -29 -41 -34 -81 -34 -40 0 -52 5 -81 34 -29 29 -34
41 -34 79 0 98 87 134 177 74z m-1476 3 c47 -13 116 -64 146 -109 91 -136 29
-362 -115 -418 -43 -17 -88 -18 -572 -18 -484 0 -529 1 -572 18 -95 37 -158
145 -158 271 1 131 94 242 222 264 64 11 1005 4 1049 -8z m483 -73 c4 5 6 1 4
-7 -2 -10 3 -14 15 -12 9 2 17 -1 16 -5 -3 -18 1 -33 9 -30 4 1 25 -17 46 -40
21 -24 43 -40 50 -36 6 3 8 3 4 -1 -9 -10 62 -87 73 -80 5 3 6 -3 2 -12 -5
-14 -3 -16 11 -11 9 4 14 3 11 -2 -3 -5 20 -34 51 -64 47 -46 56 -59 50 -80
-11 -47 -55 -22 -190 111 -69 68 -129 121 -135 118 -5 -3 -8 2 -7 12 0 9 -5
16 -11 15 -7 -2 -12 0 -11 5 1 4 -5 21 -15 38 -9 18 -19 51 -23 75 l-7 44 25
-23 c13 -12 28 -19 32 -15z m-2738 -97 c15 0 24 -58 17 -109 l-6 -41 -48 0
-49 0 0 74 c0 79 7 90 55 80 11 -2 25 -4 31 -4z m-182 -42 c3 -24 4 -52 2 -63
-3 -11 -5 -26 -5 -32 -1 -7 -12 -13 -26 -13 -24 0 -25 2 -25 75 0 72 1 75 24
75 20 0 25 -6 30 -42z m2996 -89 c-6 -10 -13 -19 -16 -19 -2 0 0 8 5 19 6 10
7 22 3 26 -4 5 -1 5 6 1 9 -5 9 -12 2 -27z m-3646 -25 c14 -5 16 -40 15 -293
0 -157 -4 -277 -8 -267 -10 25 -22 8 -32 -44 -4 -19 -7 110 -8 288 -1 190 3
322 8 322 5 0 16 -3 25 -6z m165 -8 c8 -9 11 -57 9 -147 -3 -129 -4 -134 -25
-137 -12 -2 -24 -11 -26 -20 -3 -9 -5 55 -6 144 0 88 2 164 6 167 11 11 30 8
42 -7z m149 -295 c1 -168 -1 -302 -4 -298 -4 3 -15 -4 -25 -16 -18 -21 -18
-14 -19 294 0 174 3 319 7 323 4 4 14 5 23 4 13 -3 15 -42 18 -307z m3602 273
c0 -8 -19 -13 -24 -6 -3 5 1 9 9 9 8 0 15 -2 15 -3z m1461 -44 c18 -22 36 -37
42 -33 6 3 7 1 4 -4 -4 -6 2 -18 13 -28 27 -24 27 -65 0 -65 -22 0 -48 25 -91
87 -29 41 -35 63 -22 76 12 13 22 7 54 -33z m-1656 18 c4 -3 2 -9 -3 -12 -5
-3 -15 1 -21 8 -10 11 -9 14 3 12 9 -1 18 -5 21 -8z m-3070 -133 c0 -69 0 -70
-27 -73 l-28 -3 0 76 0 76 28 -3 c27 -3 27 -4 27 -73z m197 40 c5 -16 6 -49 3
-73 l-6 -43 -47 3 -47 3 -3 59 c-4 81 0 88 50 84 37 -3 43 -7 50 -33z m3138
-20 c0 -19 -4 -35 -8 -35 -4 0 -6 16 -4 35 2 19 6 35 8 35 2 0 4 -16 4 -35z
m-197 8 c-7 -2 -19 -2 -25 0 -7 3 -2 5 12 5 14 0 19 -2 13 -5z m-17 -145 c119
-36 247 -136 307 -238 29 -51 368 -835 457 -1060 l58 -145 69 -46 c129 -87
226 -223 258 -364 14 -59 16 -141 13 -574 l-3 -506 -31 -66 c-42 -89 -93 -143
-169 -179 -83 -40 -163 -50 -400 -49 -234 0 -325 9 -411 44 l-62 25 -1301 0
c-1295 0 -1302 0 -1359 -21 -102 -37 -124 -40 -357 -46 -274 -6 -390 4 -465
42 -112 57 -185 159 -200 279 -4 34 -8 265 -8 515 -1 361 1 469 13 524 31 148
132 296 258 375 60 38 64 43 96 123 19 46 83 197 142 334 59 138 150 351 203
475 53 124 109 252 126 285 73 147 221 256 383 284 29 5 565 8 1192 7 1008 -2
1146 -4 1191 -18z m2154 -173 c67 -79 82 -113 54 -122 -6 -2 -42 32 -81 76
-58 65 -70 84 -66 105 3 14 9 26 13 26 4 0 40 -38 80 -85z m-5789 -9 c5 -6 10
-28 11 -50 l1 -41 7 45 c4 29 8 -14 8 -117 l2 -163 -25 12 -25 11 1 186 c1
102 4 173 6 156 3 -16 9 -34 14 -39z m436 -52 c34 -22 46 -80 25 -124 -46 -94
-182 -62 -182 44 1 87 80 128 157 80z m-1093 -180 c30 -29 9 -84 -31 -84 -41
0 -69 60 -41 88 17 17 54 15 72 -4z m1314 -1 c-2 -5 -37 -75 -77 -156 -80
-161 -97 -174 -95 -69 2 85 37 147 114 200 44 31 65 40 58 25z m4137 -13 c-3
-5 -12 -10 -18 -10 -7 0 -6 4 3 10 19 12 23 12 15 0z m318 -107 c61 -59 71
-80 59 -130 l-7 -32 -47 45 c-26 24 -45 44 -43 44 2 0 -13 17 -33 39 -21 21
-40 37 -43 35 -3 -2 -6 2 -7 9 -1 7 -4 24 -8 39 -3 15 -3 35 0 44 7 18 28 3
129 -93z m460 -12 c51 -55 60 -61 75 -50 9 7 1 -4 -18 -25 -63 -68 -70 -68
-133 15 -24 32 -27 45 -27 109 l0 74 23 -31 c12 -16 48 -58 80 -92z m-816 93
c-3 -3 -12 -4 -19 -1 -8 3 -5 6 6 6 11 1 17 -2 13 -5z m-517 -19 c0 -12 -19
-12 -23 0 -4 9 -1 12 9 8 7 -3 14 -7 14 -8z m38 -22 c-21 -2 -38 -9 -38 -14 0
-6 4 -7 10 -4 6 4 7 -1 3 -11 -5 -15 -7 -15 -15 0 -14 25 -1 36 40 34 l37 -1
-37 -4z m105 -10 c-7 -2 -19 -2 -25 0 -7 3 -2 5 12 5 14 0 19 -2 13 -5z m100
-10 c-13 -2 -33 -2 -45 0 -13 2 -3 4 22 4 25 0 35 -2 23 -4z m160 -177 l108
-103 136 -2 c76 -1 141 -5 145 -9 4 -4 -104 -7 -240 -7 -241 0 -248 -1 -284
-23 -36 -22 -39 -23 -60 -7 -22 16 -22 16 -2 11 13 -4 27 0 38 13 11 12 31 19
58 19 23 1 45 7 50 14 8 10 11 10 15 1 2 -7 9 -13 14 -13 5 0 0 13 -12 29 -14
19 -28 28 -41 26 -10 -2 -16 0 -13 6 4 5 11 6 17 3 6 -4 8 -1 6 7 -3 8 -11 13
-17 11 -7 -1 -10 1 -7 6 3 5 -1 30 -9 57 -15 47 -18 65 -12 65 2 0 51 -47 110
-104z m165 65 c23 -21 42 -44 42 -50 0 -17 -3 -15 -54 39 -56 59 -49 66 12 11z
m-515 -1 c3 -11 2 -18 -3 -15 -4 3 -10 14 -13 25 -3 11 -2 18 3 15 4 -3 10
-14 13 -25z m340 -17 c-5 -12 -2 -15 9 -11 8 4 15 1 15 -7 0 -10 -6 -11 -24
-2 -18 8 -20 13 -12 24 15 18 20 16 12 -4z m143 -5 l19 -23 -24 20 -24 20 7
-20 c5 -15 4 -17 -5 -8 -6 6 -8 16 -5 22 9 15 10 14 32 -11z m-451 -30 c-5
-25 -4 -29 4 -18 9 13 11 12 9 -5 -3 -40 2 -54 16 -49 9 3 17 -3 21 -17 6 -17
9 -19 16 -8 5 8 9 10 9 4 0 -5 -5 -17 -10 -25 -5 -8 -10 -10 -10 -4 0 5 -7 19
-16 30 -14 18 -15 18 -10 -6 3 -14 -4 -5 -15 20 -27 56 -41 102 -28 95 5 -4 9
-1 9 4 0 6 3 11 6 11 3 0 3 -15 -1 -32z m375 -2 c-7 -7 -13 -7 -20 0 -6 6 -3
10 10 10 13 0 16 -4 10 -10z m-184 -38 c-9 -12 -16 -19 -16 -15 0 11 24 47 28
42 2 -2 -3 -14 -12 -27z m214 22 c0 -5 -5 -10 -11 -10 -5 0 -7 5 -4 10 3 6 8
10 11 10 2 0 4 -4 4 -10z m759 -9 c8 -14 7 -22 -4 -31 -13 -11 -15 -8 -15 19
0 36 5 39 19 12z m31 -1 c0 -5 -4 -10 -10 -10 -5 0 -10 5 -10 10 0 6 5 10 10
10 6 0 10 -4 10 -10z m-810 -15 c11 -13 15 -13 22 -3 6 8 7 5 3 -11 -5 -17 -4
-22 5 -16 9 5 11 4 6 -3 -4 -7 -1 -12 8 -12 9 0 16 -4 16 -10 0 -17 -10 -11
-51 30 -22 22 -36 40 -31 40 5 0 15 -7 22 -15z m-179 -18 c-10 -9 -11 -8 -5 6
3 10 9 15 12 12 3 -3 0 -11 -7 -18z m52 -32 c1 -6 -10 -11 -26 -11 l-27 -1 27
4 c21 4 23 7 12 15 -10 7 -10 9 -1 6 8 -2 14 -8 15 -13z m227 11 c0 -3 -4 -8
-10 -11 -5 -3 -10 -1 -10 4 0 6 5 11 10 11 6 0 10 -2 10 -4z m-5700 -71 c0
-62 -1 -65 -24 -65 -22 0 -24 5 -28 58 -5 68 -4 72 28 72 23 0 24 -3 24 -65z
m-110 -7 l0 -63 -30 -1 -30 -1 0 63 0 64 30 0 30 0 0 -62z m6881 25 c5 -15 8
-38 4 -50 -4 -18 -12 -23 -40 -23 -45 0 -71 34 -56 74 9 21 17 26 46 26 29 0
37 -5 46 -27z m-1461 -7 c0 -11 -19 -15 -25 -6 -3 5 1 10 9 10 9 0 16 -2 16
-4z m-16 -37 c9 13 26 14 45 2 11 -7 8 -14 -15 -34 l-29 -25 -12 30 c-15 35
-17 49 -4 29 6 -9 11 -10 15 -2z m746 -10 c17 -13 18 -17 5 -10 -33 17 -51 31
-40 31 6 0 21 -10 35 -21z m545 -54 c14 -13 25 -32 25 -42 0 -15 -2 -16 -10
-3 -7 11 -9 7 -5 -15 7 -41 -15 -66 -64 -72 -34 -5 -43 -2 -65 22 -30 32 -33
61 -10 93 32 46 93 54 129 17z m-6368 -110 c55 -64 9 -165 -75 -165 -57 0
-102 43 -102 97 0 43 21 80 54 94 37 16 99 3 123 -26z m902 7 c53 -27 74 -63
79 -135 6 -99 -30 -162 -98 -167 -14 -1 -118 -2 -232 -1 l-207 1 -37 32 c-113
100 -70 258 75 279 25 3 123 7 216 8 144 1 175 -2 204 -17z m4854 -11 c80 -49
101 -145 48 -217 -52 -72 -52 -72 -307 -76 -126 -1 -235 1 -242 5 -20 13 -52
83 -58 130 -7 50 9 116 35 149 16 20 31 24 103 29 45 4 151 6 234 5 136 -2
155 -5 187 -25z m-6039 -215 c3 -12 6 -40 6 -63 l0 -43 -60 0 -60 0 0 65 0 66
54 -2 c46 -2 55 -5 60 -23z m-4 -281 l0 -65 -55 0 -55 0 0 65 0 65 55 0 55 0
0 -65z m844 18 c-2 -21 -22 -187 -44 -370 -22 -182 -40 -340 -40 -352 0 -16 8
-20 37 -23 27 -2 39 -8 41 -20 3 -17 -26 -18 -492 -18 -273 0 -496 2 -496 5 0
2 13 11 30 20 24 13 89 15 423 15 l394 0 23 168 c12 92 32 237 45 322 13 85
27 182 31 215 8 71 10 75 34 75 15 0 17 -6 14 -37z m5206 -148 l0 -185 29 32
c26 29 35 33 80 33 41 0 55 -5 76 -25 75 -75 30 -190 -74 -190 -27 0 -43 9
-75 43 l-41 42 3 -172 3 -173 382 0 c364 0 447 -6 462 -30 4 -6 -174 -10 -489
-10 -489 0 -496 0 -496 20 0 17 7 20 46 20 l46 0 -7 48 c-3 26 -26 131 -50
235 -49 207 -90 309 -169 415 -25 34 -46 64 -46 67 0 2 69 6 153 8 83 1 155 4
160 5 4 1 7 -81 7 -183z m-5626 115 l1 -55 -37 -3 -38 -3 0 61 0 61 37 -3 37
-3 0 -55z m6597 -223 c1 -120 -1 -221 -5 -224 -3 -4 -6 96 -6 222 0 126 2 226
5 224 2 -3 5 -103 6 -222z m-431 8 l0 -75 -54 0 c-61 0 -66 6 -66 75 0 69 5
75 66 75 l54 0 0 -75z m290 0 l0 -75 -45 0 -45 0 0 75 0 75 45 0 45 0 0 -75z
m-6875 10 c3 -30 4 -59 0 -65 -3 -5 -31 -10 -61 -10 l-54 0 0 58 c0 32 3 62 7
65 3 4 28 7 54 7 l47 0 7 -55z m421 0 c9 -62 2 -75 -41 -75 l-35 0 0 60 0 60
34 0 c33 0 35 -2 42 -45z m6621 -27 c-3 -7 -5 -2 -5 12 0 14 2 19 5 13 2 -7 2
-19 0 -25z m-10 -60 c-3 -7 -5 -2 -5 12 0 14 2 19 5 13 2 -7 2 -19 0 -25z m0
-50 c-3 -8 -6 -5 -6 6 -1 11 2 17 5 13 3 -3 4 -12 1 -19z m-7033 -97 c10 -72
3 -81 -60 -81 l-54 0 0 65 0 65 54 0 53 0 7 -49z m426 -15 c0 -47 -3 -54 -22
-60 -54 -14 -58 -10 -58 53 l0 60 33 3 c17 2 35 2 40 0 4 -2 7 -27 7 -56z
m6160 -28 l0 -78 -55 0 -55 0 0 78 0 77 55 0 55 0 0 -77z m290 -3 l0 -75 -45
0 -45 0 0 75 0 75 45 0 45 0 0 -75z m-6040 -475 l0 -40 -504 0 c-550 0 -516
-4 -516 56 l0 24 510 0 510 0 0 -40z m6078 3 l-3 -38 -502 -3 -503 -2 0 40 0
40 506 0 505 0 -3 -37z m-6078 -208 l0 -35 -474 0 c-430 0 -474 2 -480 16 -4
9 -4 25 -1 35 6 18 27 19 481 19 l474 0 0 -35z m5995 0 l0 -30 -462 -3 -463
-2 0 35 0 35 463 -2 462 -3 0 -30z m-5987 -249 c19 -110 69 -205 151 -287 l69
-69 4 -148 c2 -81 6 -154 9 -162 3 -13 -32 -15 -286 -12 -254 4 -292 6 -303
20 -7 9 -11 23 -10 32 3 13 33 16 185 20 100 3 183 7 186 10 2 3 7 31 9 63 l5
57 -268 0 c-230 0 -270 2 -283 16 -19 19 -20 25 -3 48 13 17 31 18 273 14
l260 -4 -33 44 c-18 24 -41 71 -50 103 l-16 59 -229 0 c-139 0 -237 4 -249 10
-11 6 -19 21 -19 35 l0 25 249 0 249 0 4 58 c2 31 2 59 0 62 -2 3 -157 6 -345
8 -365 4 -372 5 -360 52 5 19 17 20 397 20 l392 0 12 -74z m5847 63 c4 -5 4
-21 1 -35 l-6 -24 -350 0 -350 0 0 -65 0 -65 255 0 255 0 0 -29 c0 -21 -6 -30
-22 -35 -13 -3 -128 -6 -255 -6 l-233 0 0 -27 c0 -33 -43 -129 -70 -158 -19
-20 -18 -20 235 -17 256 3 295 -1 295 -33 0 -7 -7 -21 -16 -29 -13 -14 -53
-16 -285 -16 l-269 0 0 -60 c0 -33 3 -61 8 -61 4 -1 88 -4 187 -8 170 -6 180
-7 183 -26 5 -43 0 -44 -306 -47 -289 -3 -293 -3 -286 17 4 11 9 85 11 165 l5
145 68 65 c83 80 133 174 151 286 l12 74 388 0 c262 0 390 -3 394 -11z m-1903
-574 c3 -77 7 -146 9 -154 3 -13 -83 -14 -616 -12 -341 2 -621 4 -623 6 -2 1
-4 15 -5 31 l-2 29 473 5 c454 5 474 6 488 24 21 30 17 62 -12 85 -27 21 -29
21 -1129 21 -1100 0 -1102 0 -1129 -21 -33 -26 -35 -71 -4 -93 19 -14 71 -16
365 -16 l343 0 0 -30 c0 -17 -6 -32 -12 -34 -7 -3 -235 -7 -507 -10 -466 -6
-493 -5 -486 12 4 9 10 80 13 157 l4 140 1413 0 1413 0 4 -140z m1608 -370 l0
-35 -3030 0 -3030 0 0 35 0 35 3030 0 3030 0 0 -35z m-4718 -199 c41 -17 103
-68 118 -97 8 -15 1 -23 -45 -49 l-54 -31 -32 23 c-25 19 -43 23 -99 23 -61 0
-72 -3 -106 -31 -106 -86 -111 -249 -10 -342 56 -52 106 -62 170 -33 28 12 53
32 66 53 32 53 28 58 -45 58 l-65 0 0 54 c0 52 1 54 31 60 17 3 83 6 145 6
l114 0 0 -36 c0 -40 15 -38 25 4 3 15 21 48 40 73 69 95 201 127 304 74 l49
-24 26 53 c35 72 107 138 182 166 82 31 191 25 256 -13 44 -25 108 -89 108
-106 0 -5 -23 -24 -51 -42 -42 -27 -54 -30 -68 -21 -83 61 -145 69 -216 29
-101 -56 -128 -243 -48 -337 35 -42 73 -60 128 -60 53 0 77 10 121 52 l31 29
61 -38 c34 -21 61 -41 62 -45 0 -4 -24 -31 -53 -61 -68 -70 -128 -91 -236 -85
-88 5 -140 28 -207 90 -30 28 -44 36 -44 25 0 -24 -94 -95 -143 -108 -87 -23
-192 11 -252 83 -25 30 -38 54 -63 118 -9 24 -10 23 -36 -28 -36 -71 -84 -122
-143 -152 -66 -34 -195 -35 -265 -3 -142 65 -229 237 -200 394 27 145 109 241
245 285 51 17 147 12 199 -10z m1728 -76 l0 -100 26 10 c102 39 225 -36 261
-159 38 -132 -4 -284 -96 -343 -52 -32 -127 -38 -175 -13 -35 18 -36 18 -36 0
0 -11 -12 -15 -44 -15 -42 0 -45 2 -51 31 -4 18 -4 180 0 360 l8 329 53 0 54
0 0 -100z m444 58 c31 -40 211 -289 246 -341 14 -20 28 -37 33 -37 4 0 7 90 7
200 l0 200 75 0 75 0 -2 -347 -3 -348 -65 -3 -65 -3 -130 192 -130 191 -3
-191 -2 -191 -75 0 -75 0 0 349 0 350 23 4 c53 10 67 6 91 -25z m-697 -157
c26 -12 52 -35 70 -62 l28 -42 3 -209 3 -208 -45 0 c-34 0 -46 4 -46 15 0 19
-4 19 -42 -1 -45 -23 -117 -22 -159 2 -95 56 -107 213 -21 286 43 36 95 51
157 46 l54 -5 -13 31 c-8 21 -24 35 -51 45 -34 13 -43 13 -82 -1 l-44 -16 -24
43 c-14 23 -25 45 -25 49 0 4 19 16 43 26 55 25 139 25 194 1z m1551 -17 c135
-67 192 -230 126 -362 -78 -156 -303 -191 -428 -66 -124 124 -90 351 66 428
72 36 163 36 236 0z m272 5 c5 -8 24 -72 44 -143 35 -127 46 -156 46 -122 0
23 70 258 81 272 5 6 36 11 71 10 l61 -1 47 -148 47 -148 38 141 c21 78 44
144 50 146 7 3 43 4 82 2 l70 -3 -44 -145 c-25 -80 -60 -196 -79 -257 l-35
-113 -78 0 -78 0 -38 128 c-35 118 -55 167 -55 132 0 -8 -17 -70 -37 -137
l-37 -123 -78 0 c-74 0 -79 1 -88 24 -10 28 -136 450 -142 481 -5 19 0 20 70
19 52 -1 77 -6 82 -15z"/>
<path d="M5190 8290 c0 -5 5 -10 11 -10 5 0 7 5 4 10 -3 6 -8 10 -11 10 -2 0
-4 -4 -4 -10z"/>
<path d="M4028 7893 c6 -2 18 -2 25 0 6 3 1 5 -13 5 -14 0 -19 -2 -12 -5z"/>
<path d="M4097 7866 c-4 -10 -1 -13 8 -9 8 3 12 9 9 14 -7 12 -11 11 -17 -5z"/>
<path d="M2782 7786 c7 -8 15 -12 17 -11 5 6 -10 25 -20 25 -5 0 -4 -6 3 -14z"/>
<path d="M2687 7753 c-4 -3 -7 -11 -7 -17 0 -6 4 -4 10 4 5 8 12 11 16 7 4 -3
1 -15 -7 -24 -12 -17 -12 -17 5 -1 10 9 15 21 12 27 -8 12 -20 14 -29 4z"/>
<path d="M3795 7750 c3 -5 8 -10 11 -10 2 0 4 5 4 10 0 6 -5 10 -11 10 -5 0
-7 -4 -4 -10z"/>
<path d="M3830 7732 c8 -4 27 -15 42 -25 27 -19 48 -16 48 6 0 9 -2 9 -8 1 -8
-13 -46 -2 -57 15 -3 6 -14 11 -23 10 -14 0 -15 -2 -2 -7z"/>
<path d="M2636 7688 c3 -4 11 -5 19 -1 21 7 19 12 -4 10 -11 0 -18 -5 -15 -9z"/>
<path d="M2972 7660 c0 -14 2 -19 5 -12 2 6 2 18 0 25 -3 6 -5 1 -5 -13z"/>
<path d="M2963 7565 c0 -27 2 -38 4 -22 2 15 2 37 0 50 -2 12 -4 0 -4 -28z"/>
<path d="M2805 7590 c-9 -14 1 -25 23 -25 9 0 17 -6 17 -14 0 -7 14 -24 31
-38 27 -20 32 -21 38 -8 3 9 2 13 -4 10 -15 -9 -52 14 -43 28 13 21 13 41 0
28 -8 -8 -17 -5 -33 10 -15 14 -24 17 -29 9z"/>
<path d="M2757 7577 c-3 -8 1 -14 8 -14 7 0 11 6 8 14 -3 7 -6 13 -8 13 -2 0
-5 -6 -8 -13z"/>
<path d="M2612 7530 c12 -16 25 -30 30 -30 4 0 -4 14 -19 30 -14 17 -28 30
-30 30 -2 0 6 -13 19 -30z"/>
<path d="M2802 7533 c8 -10 13 -25 11 -33 -4 -13 -3 -13 5 -1 13 18 6 37 -16
46 -14 5 -14 4 0 -12z"/>
<path d="M2669 7503 c-7 -10 -9 -15 -4 -10 4 4 20 -3 34 -15 14 -13 20 -16 13
-7 -9 12 -9 19 1 29 10 12 9 12 -5 2 -10 -8 -19 -9 -22 -3 -3 5 0 12 6 14 8 4
9 6 2 6 -6 1 -18 -7 -25 -16z"/>
<path d="M2936 7511 c-4 -5 -2 -12 3 -15 5 -4 12 -2 15 3 4 5 2 12 -3 15 -5 4
-12 2 -15 -3z"/>
<path d="M2815 7460 c10 -11 20 -20 23 -20 3 0 -3 9 -13 20 -10 11 -20 20 -23
20 -3 0 3 -9 13 -20z"/>
<path d="M2850 7456 c7 -7 13 -7 20 0 6 6 3 10 -10 10 -13 0 -16 -4 -10 -10z"/>
<path d="M2971 7450 c0 -8 4 -22 9 -30 12 -18 12 -2 0 25 -6 13 -9 15 -9 5z"/>
<path d="M2784 7428 l-19 -23 23 19 c21 18 27 26 19 26 -2 0 -12 -10 -23 -22z"/>
<path d="M2920 7420 c0 -5 9 -14 20 -20 11 -6 20 -9 20 -8 0 2 -9 11 -20 21
-11 9 -20 13 -20 7z"/>
<path d="M2755 7400 c10 -11 20 -20 23 -20 3 0 -3 9 -13 20 -10 11 -20 20 -23
20 -3 0 3 -9 13 -20z"/>
<path d="M2630 7370 c0 -6 4 -10 9 -10 4 0 7 -16 6 -36 -1 -19 3 -38 8 -41 6
-4 7 -1 2 7 -5 8 -3 11 6 8 8 -3 23 -1 33 5 15 7 18 6 13 -7 -4 -9 -1 -15 6
-13 7 1 11 -3 10 -10 -2 -8 4 -10 14 -6 11 4 14 3 9 -5 -4 -7 -2 -12 4 -12 6
0 8 -5 5 -10 -4 -6 -10 -8 -15 -5 -5 3 -11 2 -14 -3 -2 -4 4 -9 15 -9 11 -1
23 5 26 13 7 20 -84 114 -103 107 -10 -3 -12 0 -9 10 4 8 -1 17 -9 20 -9 4
-16 2 -16 -3z m61 -47 c13 -17 13 -17 -5 -3 -18 14 -19 13 -13 -4 6 -16 5 -17
-8 -6 -13 11 -13 15 -3 21 7 5 14 9 14 9 1 0 8 -8 15 -17z"/>
<path d="M2946 7368 c3 -4 11 -5 20 -1 8 3 14 2 13 -3 -1 -5 -1 -16 0 -24 1
-13 2 -13 11 0 11 18 -5 39 -30 37 -10 -1 -17 -5 -14 -9z"/>
<path d="M2860 7346 c-6 -8 -19 -12 -28 -9 -9 3 -14 3 -11 -1 4 -4 18 -9 32
-12 21 -3 25 0 24 16 -2 24 -1 24 -17 6z"/>
<path d="M2997 7327 c-3 -8 -2 -20 3 -26 5 -9 8 -4 8 13 0 29 -3 32 -11 13z"/>
<path d="M3014 7279 c-3 -6 1 -18 10 -27 10 -11 16 -12 16 -4 0 7 -5 12 -11
12 -6 0 -9 7 -5 15 6 17 0 20 -10 4z"/>
<path d="M2450 7276 c0 -2 7 -9 15 -16 9 -7 15 -8 15 -2 0 5 -7 12 -15 16 -8
3 -15 4 -15 2z"/>
<path d="M2887 7259 c7 -7 15 -10 18 -7 3 3 -2 9 -12 12 -14 6 -15 5 -6 -5z"/>
<path d="M2331 7224 c0 -11 3 -14 6 -6 3 7 2 16 -1 19 -3 4 -6 -2 -5 -13z"/>
<path d="M2330 7193 c0 -6 8 -17 18 -24 16 -13 16 -13 2 6 -8 11 -16 22 -17
24 -2 2 -3 0 -3 -6z"/>
<path d="M2670 7179 c0 -5 5 -7 10 -4 6 3 10 8 10 11 0 2 -4 4 -10 4 -5 0 -10
-5 -10 -11z"/>
<path d="M3070 7172 c0 -5 12 -19 27 -33 l26 -24 -23 33 c-25 33 -30 38 -30
24z"/>
<path d="M2398 7133 c6 -2 18 -2 25 0 6 3 1 5 -13 5 -14 0 -19 -2 -12 -5z"/>
<path d="M3960 7022 c1 -12 30 -46 35 -40 9 8 -5 36 -21 42 -8 3 -14 2 -14 -2z"/>
<path d="M3917 6996 c-15 -12 -15 -14 -2 -19 8 -4 14 -1 12 5 -1 6 4 13 12 16
8 3 11 0 7 -7 -4 -6 -1 -11 6 -11 10 0 9 -3 -2 -11 -13 -9 -12 -10 3 -5 20 6
47 -2 47 -15 0 -4 -7 -6 -15 -3 -8 4 -15 2 -15 -4 0 -5 7 -15 15 -22 9 -8 15
-8 15 -2 0 6 3 17 6 25 4 10 -4 21 -23 31 -15 8 -23 15 -18 16 6 0 3 5 -5 10
-19 12 -21 12 -43 -4z"/>
<path d="M2326 6925 c4 -8 11 -15 16 -15 6 0 5 6 -2 15 -7 8 -14 15 -16 15 -2
0 -1 -7 2 -15z"/>
<path d="M2400 6926 c0 -2 8 -10 18 -17 15 -13 16 -12 3 4 -13 16 -21 21 -21
13z"/>
<path d="M2360 6906 c0 -2 8 -10 18 -17 15 -13 16 -12 3 4 -13 16 -21 21 -21
13z"/>
<path d="M2100 6606 c0 -2 8 -10 18 -17 15 -13 16 -12 3 4 -13 16 -21 21 -21
13z"/>
<path d="M3715 6570 c10 -11 20 -20 23 -20 3 0 -3 9 -13 20 -10 11 -20 20 -23
20 -3 0 3 -9 13 -20z"/>
<path d="M1840 6311 c0 -6 4 -13 10 -16 6 -3 7 1 4 9 -7 18 -14 21 -14 7z"/>
<path d="M1680 6220 c0 -5 5 -10 11 -10 5 0 7 5 4 10 -3 6 -8 10 -11 10 -2 0
-4 -4 -4 -10z"/>
<path d="M3145 8120 c-3 -5 1 -10 9 -10 9 0 16 5 16 10 0 6 -4 10 -9 10 -6 0
-13 -4 -16 -10z"/>
<path d="M4742 6865 c3 -38 4 -40 38 -40 l35 0 3 -114 3 -113 37 7 c20 4 39 8
41 10 2 2 3 52 2 111 l-2 107 40 -7 41 -6 0 42 0 43 -120 0 -121 0 3 -40z"/>
<path d="M5251 6901 l-33 -6 46 -63 c25 -34 46 -66 46 -70 0 -11 -69 -92 -79
-92 -4 0 -27 52 -51 115 l-45 114 -51 1 -51 0 -46 -139 c-26 -77 -47 -142 -47
-145 0 -3 20 -6 44 -6 41 0 45 2 51 31 5 21 11 29 22 25 8 -3 29 -6 47 -6 25
0 35 -6 44 -25 11 -23 17 -25 81 -25 l70 0 28 40 c15 22 30 40 33 40 3 0 15
-18 28 -40 l23 -40 99 0 100 0 0 145 0 145 -42 0 -43 0 3 -140 c2 -110 0 -140
-10 -140 -7 0 -35 32 -61 71 l-49 70 38 57 c21 31 45 63 53 70 12 10 6 12 -34
12 -43 0 -51 -4 -80 -37 l-32 -38 -22 43 c-12 23 -27 41 -34 41 -6 -1 -27 -4
-46 -8z m-147 -148 c6 -20 4 -23 -17 -23 -25 0 -27 8 -10 60 4 13 5 13 12 0 5
-8 12 -25 15 -37z"/>
<path d="M4155 6275 c-5 -2 -28 -9 -51 -14 -23 -6 -62 -27 -89 -47 -83 -64
-83 -63 -448 -874 -60 -135 -114 -249 -118 -255 -5 -5 -9 -13 -9 -17 0 -4 793
-8 1761 -8 l1761 0 -14 23 c-8 12 -66 135 -128 272 -358 794 -362 803 -452
869 -77 57 -53 56 -1173 55 -566 0 -1034 -2 -1040 -4z m1930 -143 c47 -23 75
-45 115 -92 28 -35 56 -75 62 -89 16 -40 12 -219 -4 -239 -8 -10 -20 -35 -27
-57 -20 -58 -67 -119 -110 -144 -45 -25 -124 -28 -174 -7 -46 19 -103 89 -123
150 -9 28 -21 56 -26 63 -5 7 -10 48 -11 91 0 62 4 88 22 124 33 68 41 72 140
70 79 -2 213 17 228 32 12 11 -40 55 -85 73 -68 26 -194 23 -257 -5 -27 -13
-60 -33 -72 -44 -13 -12 -23 -17 -23 -11 0 9 56 93 63 93 1 0 20 7 42 15 60
23 162 13 240 -23z m-1755 -6 l35 -13 -57 -6 c-74 -9 -136 -37 -189 -84 -26
-23 -40 -31 -36 -20 4 10 7 23 7 27 0 18 65 83 95 96 37 16 99 16 145 0z m160
-216 c7 -25 17 -55 23 -67 10 -23 3 -108 -12 -127 -4 -6 -14 -27 -20 -47 -19
-60 -70 -128 -112 -149 -45 -23 -116 -26 -162 -6 -46 19 -92 76 -118 146 -12
33 -25 60 -30 60 -4 0 -11 17 -14 38 -4 20 -9 45 -12 55 -4 15 4 17 80 17 46
0 108 7 138 16 67 19 146 72 178 120 l25 36 12 -24 c6 -13 17 -43 24 -68z
m1443 -621 c53 -53 85 -65 133 -49 40 13 118 97 136 146 6 19 14 34 18 34 14
0 171 -40 215 -55 68 -23 151 -75 203 -127 86 -84 146 -77 -603 -75 -409 1
-665 6 -665 11 0 6 25 34 56 64 66 64 176 119 319 160 l100 28 21 -46 c11 -25
42 -66 67 -91z m-1414 116 c122 -20 229 -56 313 -106 88 -52 95 -66 15 -28
-123 57 -178 64 -532 64 -274 0 -329 -3 -383 -17 -87 -24 -168 -64 -214 -106
-46 -41 -49 -35 -7 17 65 81 174 136 339 171 110 23 340 26 469 5z"/>
<path d="M6251 5324 c0 -11 3 -14 6 -6 3 7 2 16 -1 19 -3 4 -6 -2 -5 -13z"/>
<path d="M3123 4690 c-58 -12 -98 -35 -127 -73 -56 -74 -70 -182 -38 -287 16
-49 23 -58 71 -87 86 -51 221 -101 379 -138 170 -40 409 -81 418 -72 6 6 -95
278 -188 506 -21 52 -36 97 -33 100 9 8 196 -37 265 -64 140 -55 205 -108 393
-318 56 -64 82 -83 150 -117 210 -102 770 -147 1166 -92 370 51 446 86 609
280 100 118 165 171 275 221 120 56 357 113 330 79 -21 -25 -232 -570 -233
-599 0 -11 280 42 456 86 167 41 339 109 386 152 29 26 62 147 54 199 -16 116
-84 203 -175 223 -62 13 -4091 14 -4158 1z m285 -110 c20 -12 50 -40 67 -63
24 -34 30 -54 33 -107 3 -59 0 -70 -27 -113 -23 -36 -45 -54 -84 -72 -28 -14
-63 -25 -77 -25 -143 0 -248 150 -194 278 48 116 176 162 282 102z m3771 -1
c20 -11 50 -39 66 -62 27 -37 30 -50 30 -113 0 -92 -31 -144 -108 -180 -67
-31 -110 -30 -176 2 -64 32 -99 82 -108 152 -19 165 153 282 296 201z m-1924
-78 c161 -73 141 -300 -28 -328 -107 -17 -206 67 -207 175 0 67 58 141 128
162 42 13 64 11 107 -9z"/>
<path d="M3381 3732 c-101 -51 -135 -198 -64 -282 112 -134 333 -57 333 115 0
48 -25 109 -56 136 -57 50 -150 64 -213 31z"/>
<path d="M6845 3736 c-43 -18 -93 -79 -101 -121 -30 -161 110 -281 251 -216
47 22 89 64 104 104 24 64 3 156 -45 198 -55 48 -145 63 -209 35z"/>
<path d="M4026 3601 c14 -57 67 -171 91 -195 l26 -26 1047 0 c1047 0 1047 0
1074 21 14 11 34 35 42 52 14 26 64 163 64 174 0 7 -406 2 -415 -5 -5 -4 -18
-24 -27 -45 -10 -20 -32 -46 -50 -57 -32 -19 -52 -20 -676 -20 -571 0 -648 2
-678 16 -35 17 -74 69 -74 98 0 16 -18 17 -215 15 l-215 -2 6 -26z"/>
<path d="M2772 6220 c0 -14 2 -19 5 -12 2 6 2 18 0 25 -3 6 -5 1 -5 -13z"/>
<path d="M2779 6028 c-3 -34 0 -48 8 -48 14 0 15 30 4 70 -7 21 -8 17 -12 -22z"/>
<path d="M2791 5954 c0 -11 3 -14 6 -6 3 7 2 16 -1 19 -3 4 -6 -2 -5 -13z"/>
<path d="M7193 5563 c-21 -8 -15 -22 7 -16 11 3 20 9 20 14 0 10 -8 10 -27 2z"/>
<path d="M3870 2043 c-30 -34 -32 -40 -28 -96 4 -52 9 -64 36 -88 45 -41 99
-40 146 2 41 36 52 78 37 137 -15 56 -51 82 -111 82 -43 0 -52 -4 -80 -37z"/>
<path d="M5248 2104 c-16 -5 -18 -20 -18 -129 0 -122 0 -124 26 -144 34 -27
64 -27 99 1 70 55 74 192 7 251 -21 19 -82 30 -114 21z"/>
<path d="M4858 1924 c-32 -17 -43 -49 -29 -86 13 -34 26 -41 70 -40 56 2 101
67 73 108 -10 16 -48 34 -69 34 -10 -1 -30 -7 -45 -16z"/>
<path d="M6344 2036 c-28 -28 -34 -42 -34 -76 0 -109 103 -159 176 -86 28 28
34 42 34 75 0 48 -21 96 -49 111 -41 21 -91 12 -127 -24z"/>
</g>
</svg>
